{"title":"Blackthorn.2011.LIMITED.720p.Bluray.x264.anoXmous","uid":6922345,"size":733393702,"categoryP":"video","categoryS":"hd___movies","magnet":"?xt=urn:btih:5c8d10048811bcde75eb3ce77e56f21734a867ee&amp;dn=Blackthorn.2011.LIMITED.720p.Bluray.x264.anoXmous&amp;tr=udp%3A%2F%2Ftracker.openbittorrent.com%3A80&amp;tr=udp%3A%2F%2Fopen.demonii.com%3A1337&amp;tr=udp%3A%2F%2Ftracker.coppersurfer.tk%3A6969&amp;tr=udp%3A%2F%2Fexodus.desync.com%3A6969","seeders":0,"leechers":1,"uploader":"anoXmous","files":-1,"time":1325318569,"description":"Blackthorn.2011.LIMITED.720p.Bluray.x264.anoXmous\n\nFormat                           : MPEG-4\nFormat profile                   : Base Media\nCodec ID                         : isom\nFile size                        : 699 MiB\nDuration                         : 1h 42mn\nOverall bit rate mode            : Variable\nOverall bit rate                 : 955 Kbps\n\n\nVideo\nID                               : 1\nFormat                           : AVC\nFormat/Info                      : Advanced Video Codec\nFormat profile                   : &lt;a class=&quot;__cf_email__&quot; href=&quot;/cdn-cgi/l/email-protection&quot; data-cfemail=&quot;89c1e0eee1c9c5bda7b8&quot;&gt;[email&amp;#160;protected]&lt;/a&gt;&lt;script cf-hash='f9e31' type=&quot;text/javascript&quot;&gt;\n/* &lt;![CDATA[ */!function(){try{var t=&quot;currentScript&quot;in document?document.currentScript:function(){for(var t=document.getElementsByTagName(&quot;script&quot;),e=t.length;e--;)if(t[e].getAttribute(&quot;cf-hash&quot;))return t[e]}();if(t&amp;&amp;t.previousSibling){var e,r,n,i,c=t.previousSibling,a=c.getAttribute(&quot;data-cfemail&quot;);if(a){for(e=&quot;&quot;,r=parseInt(a.substr(0,2),16),n=2;a.length-n;n+=2)i=parseInt(a.substr(n,2),16)^r,e+=String.fromCharCode(i);e=document.createTextNode(e),c.parentNode.replaceChild(e,c)}}}catch(u){}}();/* ]]&gt; */&lt;/script&gt;\nFormat settings, CABAC           : Yes\nFormat settings, ReFrames        : 4 frames\nCodec ID                         : avc1\nCodec ID/Info                    : Advanced Video Coding\nDuration                         : 1h 42mn\nBit rate                         : 886 Kbps\nMaximum bit rate                 : 8 972 Kbps\nWidth                            : 1 280 pixels\nHeight                           : 544 pixels\nDisplay aspect ratio             : 2.35:1\nFrame rate mode                  : Constant\nFrame rate                       : 23.976 fps\nColor space                      : YUV\nChroma subsampling               : 4:2:0\nBit depth                        : 8 bits\nScan type                        : Progressive\nBits/(Pixel*Frame)               : 0.053\nStream size                      : 649 MiB (93%)\nWriting library                  : x264 core 120 r2120 0c7dab9\n\n\nAudio\nID                               : 2\nFormat                           : AAC\nFormat/Info                      : Advanced Audio Codec\nFormat profile                   : LC\nCodec ID                         : 40\nDuration                         : 1h 42mn\nBit rate mode                    : Variable\nBit rate                         : 66.2 Kbps\nMaximum bit rate                 : 96.8 Kbps\nChannel(s)                       : 2 channels\nChannel positions                : Front: L R\nSampling rate                    : 48.0 KHz \nCompression mode                 : Lossy\nStream size                      : 48.6 MiB (7%)\n\n                              SUB:\n    Blackthorn.2011.LIMITED.720p.Bluray.x264.anoXmous_eng.srt\n    Blackthorn.2011.LIMITED.720p.Bluray.x264.anoXmous_swe.srt\n\n           &lt;a href=&quot; http://www.imdb.com/title/tt1629705/&quot; rel=&quot;nofollow&quot; target=&quot;_NEW&quot;&gt; http://www.imdb.com/title/tt1629705/&lt;/a&gt;\n\n+++++++++ This work very fine with PSP and XBOX :) ++++++++++\n","torrent":{"xt":"urn:btih:5c8d10048811bcde75eb3ce77e56f21734a867ee","amp;dn":"Blackthorn.2011.LIMITED.720p.Bluray.x264.anoXmous","amp;tr":["udp%3A%2F%2Ftracker.openbittorrent.com%3A80","udp%3A%2F%2Fopen.demonii.com%3A1337","udp%3A%2F%2Ftracker.coppersurfer.tk%3A6969","udp%3A%2F%2Fexodus.desync.com%3A6969"],"infoHash":"5c8d10048811bcde75eb3ce77e56f21734a867ee","infoHashBuffer":{"type":"Buffer","data":[92,141,16,4,136,17,188,222,117,235,60,231,126,86,242,23,52,168,103,238]},"announce":[],"urlList":[]}}